<svg width="22" height="22" viewBox="0 0 22 22" fill="none" xmlns="http://www.w3.org/2000/svg">
<path fill-rule="evenodd" clip-rule="evenodd" d="M19.5962 21.9195L2.00853 21.9494C1.12376 21.951 0.405416 21.2951 0.403876 20.4012L0.373582 2.56628C0.372152 1.67262 1.08801 0.946484 1.97278 0.945076L19.5606 0.9152C20.4453 0.91366 21.1637 1.63735 21.1652 2.53101L21.1955 20.3658C21.1971 21.2599 20.481 21.918 19.5962 21.9195ZM9.23679 4.98582C8.28777 4.98749 7.36771 5.14217 6.74782 5.44938C6.1277 5.75621 5.68102 6.2984 5.45059 6.78557C5.22027 7.27287 5.10572 7.86559 5.10739 8.8539L5.10893 9.7918L3.55326 9.79438L3.55742 12.2537L5.11311 12.251L5.12706 20.419L8.45205 20.4134L8.4381 12.2453L10.5117 12.2419L11.082 9.78168L8.43392 9.78617L8.43249 8.90303C8.43141 8.30619 8.53822 7.90189 8.75281 7.69166C8.96738 7.48103 9.3938 7.35456 9.88863 7.35368C10.3915 7.35291 10.7953 7.58916 11.3034 7.88713L11.9055 5.57291C10.9722 5.30919 10.2101 4.98414 9.23679 4.98582Z" fill="#414344"/>
</svg>
