<svg width="21" height="21" viewBox="0 0 21 21" fill="none" xmlns="http://www.w3.org/2000/svg">
<path fill-rule="evenodd" clip-rule="evenodd" d="M19.1939 21.0025H1.60616C0.721392 21.0025 0.004221 20.3455 0.004221 19.4516V1.61629C0.004221 0.722652 0.721392 -0.001953 1.60616 -0.001953H19.1939C20.0787 -0.001953 20.7959 0.722652 20.7959 1.61629V19.4516C20.7959 20.3455 20.0787 21.0025 19.1939 21.0025ZM8.86326 4.05098C7.91425 4.05098 6.99395 4.20451 6.37346 4.51017C5.75287 4.81635 5.30523 5.35777 5.07396 5.84443C4.84281 6.33148 4.72729 6.9237 4.72729 7.912V8.8499H3.17161V11.3091H4.72729V19.4774H8.05228V11.3091H10.1259L10.7004 8.8499H8.05228V7.96717C8.05228 7.36993 8.1597 6.96576 8.37463 6.75591C8.58957 6.54568 9.0162 6.41985 9.51105 6.41985C10.0139 6.41985 10.4174 6.65689 10.925 6.95614L11.5311 4.64255C10.5981 4.37728 9.83661 4.05098 8.86326 4.05098Z" fill="#2B75B2"/>
</svg>
