<svg width="25" height="21" viewBox="0 0 25 21" fill="none" xmlns="http://www.w3.org/2000/svg">
<path fill-rule="evenodd" clip-rule="evenodd" d="M20.7189 5.69451L20.725 9.30451L19.2625 9.30695L19.2564 5.69694L15.6002 5.7031L15.5976 4.22724L19.2539 4.22108L19.2477 0.611205L20.7102 0.608769L20.7164 4.21852L24.3724 4.21235L24.375 5.68823L20.7189 5.69451ZM10.6001 2.05615C11.8988 2.78061 12.6614 3.95915 12.664 5.50173C12.6662 6.79787 11.8768 7.82032 10.8576 8.61481C9.86344 9.38891 9.67473 9.7137 9.67581 10.3707C9.67677 10.9312 10.7453 11.8844 11.3036 12.2751C12.9359 13.4182 13.4198 14.4811 13.4228 16.2566C13.4265 18.4717 11.3184 20.9491 7.41155 20.9557C3.9838 20.9616 0.99808 19.308 0.994384 17.0931C0.990568 14.8441 3.7163 12.6692 7.14321 12.6634C7.51682 12.6627 7.8587 12.6472 8.21286 12.6466C7.74294 12.194 7.3715 11.6304 7.3703 10.9451C7.36958 10.5391 7.49963 10.1303 7.68107 9.7822C7.49476 9.79616 7.30461 9.76603 7.10898 9.76641C4.29398 9.77115 2.4045 7.7159 2.40035 5.25044C2.3963 2.83781 4.99684 0.612738 7.76404 0.607992C9.30662 0.60543 13.9354 0.597597 13.9354 0.597597L12.5569 2.05281L10.6001 2.05615ZM7.79694 13.2361C5.42826 13.2156 3.30825 14.6791 3.31122 16.4331C3.31432 18.2226 5.02758 19.5281 7.39617 19.5241C10.726 19.5185 11.8852 18.2997 11.8822 16.5102C11.8818 16.2947 11.8542 16.083 11.8055 15.8773C11.5431 14.8651 10.6203 14.3654 9.33261 13.4789C8.86458 13.3286 8.34959 13.2417 7.79694 13.2361ZM10.4453 5.53314C10.1669 3.45994 8.58443 1.79705 6.99395 1.75306C5.40441 1.70867 4.34082 3.29792 4.61942 5.37216C4.89707 7.44629 6.41102 9.16444 8.0014 9.20844C9.59032 9.25333 10.723 7.60828 10.4453 5.53314Z" fill="#414344"/>
</svg>
