<svg width="24" height="21" viewBox="0 0 24 21" fill="none" xmlns="http://www.w3.org/2000/svg">
<path fill-rule="evenodd" clip-rule="evenodd" d="M20.3438 5.10714V8.71729H18.8813V5.10714H15.2251V3.63128H18.8813V0.021147H20.3438V3.63128H24V5.10714H20.3438ZM10.2313 1.4516C11.5287 2.17837 12.2893 3.35819 12.2893 4.90075C12.2893 6.19691 11.4981 7.21793 10.4777 8.01039C9.48216 8.78321 9.29285 9.10734 9.29285 9.76473C9.29285 10.3249 10.3598 11.2798 10.9174 11.6718C12.5479 12.8177 13.0298 13.881 13.0298 15.6565C13.0298 17.8716 10.9174 20.3458 7.01059 20.3458C3.58284 20.3458 0.6 18.6869 0.6 16.4723C0.6 14.223 3.3294 12.0529 6.75631 12.0529C7.12992 12.0529 7.47194 12.038 7.82611 12.038C7.35689 11.5846 6.9864 11.0201 6.9864 10.3348C6.9864 9.92903 7.11706 9.52062 7.29907 9.17276C7.11276 9.18609 6.92273 9.15558 6.7271 9.15558C3.9121 9.15558 2.0261 7.0975 2.0261 4.63203C2.0261 2.21915 4.63046 -0.001302 7.39766 -0.001302C8.94024 -0.001302 13.569 -0.001302 13.569 -0.001302L12.188 1.4516H10.2313ZM7.40911 12.6268C5.04043 12.6019 2.91802 14.0623 2.91802 15.8162C2.91802 17.6057 4.62914 18.9138 6.99773 18.9138C10.3276 18.9138 11.4888 17.6973 11.4888 15.9078C11.4888 15.692 11.4616 15.4805 11.4131 15.2748C11.1525 14.2622 10.2306 13.7606 8.94442 12.8722C8.47663 12.7212 7.96176 12.6331 7.40911 12.6268ZM10.0706 4.92807C9.79567 2.85461 8.21604 1.18917 6.62566 1.14246C5.03614 1.0954 3.96991 2.68248 4.24493 4.75749C4.51913 6.8321 6.0301 8.55246 7.62046 8.59927C9.20928 8.64686 10.3448 7.00373 10.0706 4.92807Z" fill="#DD4070"/>
</svg>
