<svg width="22" height="22" viewBox="0 0 22 22" fill="none" xmlns="http://www.w3.org/2000/svg">
<path fill-rule="evenodd" clip-rule="evenodd" d="M18.9522 21.6976L3.35214 21.7242C1.91627 21.7266 0.750156 20.5535 0.74778 19.1036L0.720962 3.35372C0.718564 1.90364 1.88063 0.726506 3.3165 0.724086L18.9166 0.697642C20.3525 0.695222 21.5184 1.86837 21.521 3.31846L21.5477 19.0684C21.5502 20.5181 20.3881 21.6952 18.9522 21.6976ZM11.1274 7.14228C9.50596 7.14509 8.11373 8.11611 7.47655 9.51091H7.47298C7.46629 9.52552 7.46165 9.54118 7.45534 9.55579C7.41719 9.64212 7.38344 9.73062 7.35115 9.81977C7.33577 9.86236 7.3192 9.90418 7.30512 9.94741C7.27569 10.0385 7.25135 10.1322 7.22823 10.226C7.21739 10.2703 7.20438 10.3132 7.19497 10.3577C7.17387 10.4571 7.15933 10.558 7.14562 10.6595C7.14014 10.7006 7.13167 10.7409 7.12738 10.7823C7.11249 10.9254 7.10402 11.0707 7.10426 11.2179C7.10807 13.4648 8.91552 15.2835 11.1413 15.2798C13.3669 15.276 15.1682 13.4511 15.1644 11.2042C15.1641 11.0569 15.1552 10.9118 15.1398 10.7686C15.1353 10.7273 15.1268 10.6871 15.1211 10.646C15.1071 10.5445 15.0921 10.4437 15.0708 10.3444C15.0611 10.2999 15.0481 10.2569 15.037 10.2127C15.0135 10.119 14.989 10.0254 14.9592 9.93445C14.9451 9.89122 14.9283 9.84953 14.9127 9.80681C14.8802 9.71793 14.8462 9.62955 14.8078 9.54336C14.8011 9.52873 14.7966 9.51309 14.7899 9.49846H14.7863C14.1444 8.10583 12.7487 7.13959 11.1274 7.14228ZM19.1823 4.10986C19.1814 3.52983 18.7149 3.06075 18.1404 3.06165L16.0605 3.06524C15.4861 3.06614 15.0213 3.5369 15.0223 4.11693L15.0258 6.21683C15.0268 6.79659 15.4933 7.26605 16.0676 7.26504L18.1476 7.26145C18.722 7.26055 19.1868 6.78953 19.1859 6.20976L19.1823 4.10986ZM19.1915 9.49102L17.2742 9.49423C17.4231 10.0377 17.5034 10.6095 17.5043 11.2002C17.5104 14.7521 14.6633 17.6362 11.1453 17.6421C7.62722 17.6482 4.77037 14.7737 4.7643 11.2219C4.76335 10.6312 4.84167 10.0591 4.98865 9.51513L3.0714 9.51848L3.08631 18.3122C3.08739 18.892 3.55373 19.3615 4.12808 19.3604L18.1681 19.3366C18.7425 19.3356 19.2073 18.8647 19.2064 18.2849L19.1915 9.49102Z" fill="#414344"/>
</svg>
