<svg width="22" height="21" viewBox="0 0 22 21" fill="none" xmlns="http://www.w3.org/2000/svg">
<path fill-rule="evenodd" clip-rule="evenodd" d="M18.5501 21.0003H2.95C1.51413 21.0003 0.350042 19.8253 0.350042 18.3752V2.62513C0.350042 1.17543 1.51413 0.000231 2.95 0.000231H18.5501C19.986 0.000231 21.1501 1.17543 21.1501 2.62513V18.3752C21.1501 19.8253 19.986 21.0003 18.5501 21.0003ZM10.7501 6.4314C9.12861 6.4314 7.73472 7.40046 7.09515 8.79385H7.09157C7.0849 8.80874 7.08024 8.82399 7.07381 8.83901C7.03553 8.92521 7.0017 9.01333 6.96927 9.10272C6.95376 9.14506 6.93708 9.18712 6.923 9.23036C6.89333 9.32129 6.86888 9.41468 6.84565 9.50869C6.83467 9.55269 6.82167 9.59593 6.81215 9.64018C6.79092 9.73946 6.77615 9.84041 6.76232 9.94186C6.75671 9.9833 6.74813 10.0232 6.74384 10.0649C6.7287 10.208 6.71999 10.3532 6.71999 10.5001C6.71999 12.7474 8.52434 14.5689 10.7501 14.5689C12.9757 14.5689 14.7801 12.7474 14.7801 10.5001C14.7801 10.3532 14.7714 10.208 14.7563 10.0649C14.7518 10.0232 14.7434 9.9833 14.7378 9.94186C14.7239 9.84041 14.7092 9.73946 14.6879 9.64018C14.6784 9.59593 14.6654 9.55269 14.6544 9.50869C14.6311 9.41468 14.6068 9.32129 14.5771 9.23036C14.563 9.18712 14.5463 9.14506 14.5308 9.10272C14.4984 9.01333 14.4645 8.92521 14.4263 8.83901C14.4197 8.82399 14.4152 8.80874 14.4085 8.79385H14.4049C13.7654 7.40046 12.3713 6.4314 10.7501 6.4314ZM18.8101 3.41271C18.8101 2.83279 18.3445 2.36294 17.77 2.36294H15.69C15.1157 2.36294 14.65 2.83279 14.65 3.41271V5.51286C14.65 6.09263 15.1157 6.56288 15.69 6.56288H17.77C18.3445 6.56288 18.8101 6.09263 18.8101 5.51286V3.41271ZM18.8101 8.79385H16.8928C17.0408 9.33746 17.12 9.90942 17.12 10.5001C17.12 14.0524 14.2681 16.9316 10.7501 16.9316C7.23199 16.9316 4.38005 14.0524 4.38005 10.5001C4.38005 9.90942 4.45931 9.33746 4.60724 8.79385H2.69001V17.5876C2.69001 18.1678 3.15564 18.6376 3.72999 18.6376H17.77C18.3445 18.6376 18.8101 18.1678 18.8101 17.5876V8.79385Z" fill="#26658E"/>
</svg>
