<svg width="43" height="35" viewBox="0 0 43 35" fill="none" xmlns="http://www.w3.org/2000/svg">
<path fill-rule="evenodd" clip-rule="evenodd" d="M36.8988 34.2963L5.9464 34.3489C3.09733 34.3538 0.784056 32.0579 0.779184 29.2212L0.739956 6.1076C0.735168 3.27068 3.04067 0.96719 5.88979 0.962325L36.842 0.90986C39.6911 0.904995 42.0045 3.2005 42.0094 6.03743L42.0486 29.1511C42.0533 31.9877 39.7478 34.2914 36.8988 34.2963ZM7.18368 3.52811L21.3911 15.7833L35.5566 3.47988L7.18368 3.52811ZM39.4301 6.04191C39.4287 5.30296 39.1099 4.64251 38.6072 4.1747L21.3964 18.9133L4.13561 4.23321C3.63472 4.70267 3.31783 5.36427 3.31918 6.10323L3.3584 29.2168C3.36088 30.6348 4.51769 31.7831 5.94212 31.7807L36.8944 31.7281C38.3189 31.7256 39.4716 30.5736 39.4692 29.1555L39.4301 6.04191Z" fill="#6D6E71"/>
</svg>
