<svg width="36" height="49" viewBox="0 0 36 49" fill="none" xmlns="http://www.w3.org/2000/svg">
<path fill-rule="evenodd" clip-rule="evenodd" d="M18.0145 48.1175C15.0985 48.1377 0.436824 25.6767 0.42408 18.152C0.407268 8.21259 8.24634 0.141855 17.933 0.12544C27.6199 0.108927 35.4864 8.15306 35.5033 18.0924C35.5159 25.5165 20.885 48.1279 18.0145 48.1175ZM17.938 3.12493C9.86605 3.13865 3.33338 9.86419 3.34742 18.147C3.35815 24.4178 15.577 43.635 18.0068 43.6185C20.399 43.6268 32.5904 24.2844 32.5799 18.0974C32.5659 9.8145 26.0104 3.11116 17.938 3.12493ZM17.9763 25.6214C13.9401 25.6282 10.6626 22.2763 10.6556 18.1346C10.6485 13.9933 13.9146 10.6306 17.9508 10.6236C21.987 10.6168 25.2648 13.9685 25.2718 18.1098C25.2788 22.2514 22.0125 25.6145 17.9763 25.6214ZM17.9559 13.6231C15.5343 13.6273 13.5745 15.6449 13.5787 18.1297C13.583 20.6146 15.5496 22.6254 17.9712 22.6213C20.3931 22.6171 22.3527 20.5998 22.3485 18.1147C22.3444 15.63 20.3778 13.619 17.9559 13.6231Z" fill="#6D6E71"/>
</svg>
