<svg width="40" height="40" viewBox="0 0 40 40" fill="none" xmlns="http://www.w3.org/2000/svg">
<path fill-rule="evenodd" clip-rule="evenodd" d="M4.79276 0.98996L1.17024 4.66692C-0.83048 6.6974 0.1374 9.1158 1.18264 12.0082C1.18264 12.0082 6.18728 20.6005 12.6491 27.1144C19.5187 34.0395 27.5369 38.5748 27.5369 38.5748C30.186 39.9475 32.7941 40.5929 34.7946 38.5624L38.4174 34.8855C39.4176 33.8706 39.6288 32.0639 38.4111 31.2153L31.144 25.7219C29.9137 24.8822 28.5155 24.7126 27.5151 25.7281L25.3723 27.9026C22.8522 26.0076 20.0481 23.6972 17.528 21.157C15.2988 18.9092 13.317 16.4716 11.6665 14.2367L13.8835 11.9866C14.8841 10.9711 14.7116 9.55744 13.8773 8.3158L8.4216 0.9838C7.418 -0.0283599 5.79316 -0.02556 4.79276 0.98996ZM8.33304 13.9431L11.2428 10.9897C11.8794 10.3438 11.7695 9.4438 11.2389 8.65416L7.76692 3.98812C7.12796 3.12664 6.09428 3.34588 5.4576 3.99208L3.15232 6.3316C2.24836 7.1956 2.51348 9.2042 2.99388 10.1695C5.14384 14.2957 9.91424 20.6464 13.9054 24.8333C18.508 29.8654 29.3483 36.7368 29.3483 36.7368C30.185 37.1797 32.5054 37.2097 33.1418 36.5635L35.447 34.2234C35.9226 33.4147 36.1353 32.4772 35.443 31.8877L30.8185 28.392C30.0356 27.8577 29.1462 27.7496 28.5093 28.3958L25.6688 31.2787C24.9975 30.8019 14.2961 23.7139 8.33304 13.9431Z" fill="#6D6E71"/>
</svg>
