<svg width="19" height="19" viewBox="0 0 19 19" fill="none" xmlns="http://www.w3.org/2000/svg">
<path fill-rule="evenodd" clip-rule="evenodd" d="M15.8285 18.6003H2.37069C1.13198 18.6003 0.127775 17.5826 0.127775 16.3278V2.69424C0.127775 1.43914 1.14676 0.314469 2.38547 0.314469H15.9317C17.1705 0.314469 18.1894 1.34511 18.1894 2.59996V16.3144C18.1894 17.5692 17.0672 18.6003 15.8285 18.6003ZM17.0606 2.59996C17.0606 1.97247 16.5511 1.45722 15.9317 1.45722H2.38547C1.76605 1.45722 1.24929 2.06688 1.24929 2.69424V16.3278C1.24929 16.9552 1.7514 17.4641 2.37069 17.4641H15.8285C16.4479 17.4641 17.0606 16.9419 17.0606 16.3144V2.59996ZM13.6741 12.8859H4.64318C4.33145 12.8859 4.07884 12.63 4.07884 12.3144C4.07884 11.9988 4.33145 11.7431 4.64318 11.7431H13.6741C13.9857 11.7431 14.2384 11.9988 14.2384 12.3144C14.2384 12.63 13.9857 12.8859 13.6741 12.8859ZM13.6741 9.45698H4.64318C4.33145 9.45698 4.07884 9.20134 4.07884 8.88592C4.07884 8.57025 4.33145 8.31423 4.64318 8.31423H13.6741C13.9857 8.31423 14.2384 8.57025 14.2384 8.88592C14.2384 9.20134 13.9857 9.45698 13.6741 9.45698ZM13.6741 6.02874H4.64318C4.33145 6.02874 4.07884 5.77283 4.07884 5.45703C4.07884 5.14163 4.33145 4.88572 4.64318 4.88572H13.6741C13.9857 4.88572 14.2384 5.14163 14.2384 5.45703C14.2384 5.77283 13.9857 6.02874 13.6741 6.02874Z" fill="#6D6E71"/>
</svg>
