<svg width="18" height="17" viewBox="0 0 18 17" fill="none" xmlns="http://www.w3.org/2000/svg">
<path fill-rule="evenodd" clip-rule="evenodd" d="M16.9232 14.4914L12.0974 11.1999H7.80772V15.5887C7.80772 16.1943 7.32755 16.686 6.73531 16.686H5.12671C4.53447 16.686 4.0543 16.1943 4.0543 15.5887V11.1999C4.0543 11.1641 4.06134 11.1305 4.06454 11.0954C2.21026 10.7329 0.837072 9.40797 0.837072 7.36003C0.837072 4.93626 2.75755 3.52016 5.12671 3.52016H12.0974L16.9232 0.228633C17.5155 0.228633 17.9957 0.719661 17.9957 1.32585V13.3945C17.9957 14.0004 17.5155 14.4914 16.9232 14.4914ZM5.12671 15.0401C5.12671 15.3431 5.36679 15.5887 5.66291 15.5887H6.19911C6.49523 15.5887 6.73531 15.3431 6.73531 15.0401V11.1999C6.46722 11.1999 5.95903 11.1999 5.66291 11.1999H5.12671V15.0401ZM5.12671 4.61751C4.02557 4.58133 1.90948 4.93626 1.90948 7.36003C1.90948 9.78379 4.06073 10.1029 5.12671 10.1029H9.41634V4.61751H5.12671ZM12.0974 8.96262C12.0974 8.93093 12.0974 8.89732 12.0974 8.87206C12.0974 8.39567 12.0974 8.96045 12.0974 7.90864C12.0974 7.75792 12.0974 7.58513 12.0974 7.36003C12.0974 4.93626 12.0974 7.38992 12.0974 4.61751H10.4887V10.1029H12.0974C12.0974 9.50596 12.0974 9.16759 12.0974 8.96262ZM16.9232 12.0229V2.69719C16.9232 2.24259 16.9232 1.99439 16.9232 1.32585L13.1698 4.06876C13.1698 4.57016 13.1698 4.71152 13.1698 5.16572V9.55432C13.1698 10.0089 13.1698 9.76789 13.1698 10.6515L16.9232 13.3945C16.9232 12.7773 16.9232 12.4775 16.9232 12.0229Z" fill="#6D6E71"/>
</svg>
