<svg width="20" height="22" viewBox="0 0 20 22" fill="none" xmlns="http://www.w3.org/2000/svg">
<path fill-rule="evenodd" clip-rule="evenodd" d="M16.4639 21.6003H3.56259C2.13767 21.6003 0.982414 20.4235 0.982414 18.9716V5.82842C0.982414 4.37679 2.13767 3.19979 3.56259 3.19979H5.49784V1.8858H7.23531C7.79405 1.10337 8.82246 0.57156 10.0132 0.57156C11.204 0.57156 12.2324 1.10337 12.7912 1.8858H14.5287V3.19979H16.4639C17.8889 3.19979 19.0441 4.37679 19.0441 5.82842V18.9716C19.0441 20.4235 17.8889 21.6003 16.4639 21.6003ZM13.2386 3.19979H11.8051C11.8051 2.47405 11.0029 1.8858 10.0132 1.8858C9.02368 1.8858 8.2214 2.47405 8.2214 3.19979H6.78803V5.82842H13.2386V3.19979ZM17.754 5.82842C17.754 5.10266 17.1764 4.51442 16.4639 4.51442H14.5287V7.14278H5.49784V4.51442H3.56259C2.85008 4.51442 2.27262 5.10266 2.27262 5.82842V18.9716C2.27262 19.6974 2.85008 20.2859 3.56259 20.2859H16.4639C17.1764 20.2859 17.754 19.6974 17.754 18.9716V5.82842ZM14.5287 17.6573H5.49784C5.14164 17.6573 4.85279 17.363 4.85279 17.0003C4.85279 16.6373 5.14164 16.343 5.49784 16.343H14.5287C14.885 16.343 15.1737 16.6373 15.1737 17.0003C15.1737 17.363 14.885 17.6573 14.5287 17.6573ZM14.5287 14.3717H5.49784C5.14164 14.3717 4.85279 14.0774 4.85279 13.7147C4.85279 13.3515 5.14164 13.0573 5.49784 13.0573H14.5287C14.885 13.0573 15.1737 13.3515 15.1737 13.7147C15.1737 14.0774 14.885 14.3717 14.5287 14.3717ZM14.5287 11.086H5.49784C5.14164 11.086 4.85279 10.7914 4.85279 10.4287C4.85279 10.0657 5.14164 9.77141 5.49784 9.77141H14.5287C14.885 9.77141 15.1737 10.0657 15.1737 10.4287C15.1737 10.7914 14.885 11.086 14.5287 11.086Z" fill="#6D6E71"/>
</svg>
