<svg width="19" height="19" viewBox="0 0 19 19" fill="none" xmlns="http://www.w3.org/2000/svg">
<path fill-rule="evenodd" clip-rule="evenodd" d="M9.72255 18.6003C4.73495 18.6003 0.691733 14.5066 0.691733 9.45698C0.691733 4.40779 4.73495 0.314469 9.72255 0.314469C14.7101 0.314469 18.7534 4.40779 18.7534 9.45698C18.7534 14.5066 14.7101 18.6003 9.72255 18.6003ZM16.2675 13.9311C17.0238 12.8028 17.5019 11.4691 17.603 10.0287H13.0846C13.0565 11.0907 12.9684 12.1283 12.8016 13.1188C14.0245 13.2944 15.1868 13.5671 16.2675 13.9311ZM7.49119 10.0287C7.52136 11.0347 7.61148 12.0245 7.78172 12.9753C8.41662 12.9188 9.06309 12.8859 9.72255 12.8859C10.3819 12.8859 11.0284 12.9188 11.6634 12.9753C11.8336 12.0245 11.9238 11.0347 11.9539 10.0287H7.49119ZM11.9539 8.88592C11.9238 7.87991 11.8336 6.88967 11.6634 5.93946C11.0284 5.99551 10.3819 6.02874 9.72255 6.02874C9.06309 6.02874 8.41662 5.99551 7.78172 5.93946C7.61148 6.88967 7.52136 7.87991 7.49119 8.88592H11.9539ZM15.4901 14.9164C14.5688 14.6217 13.5954 14.3966 12.5809 14.2453C12.3441 15.2922 12.0367 16.286 11.6607 17.2047C13.1504 16.8235 14.4717 16.0151 15.4901 14.9164ZM9.17455 17.4292C9.35634 17.4419 9.53754 17.4571 9.72255 17.4571C9.90757 17.4571 10.0886 17.4419 10.2704 17.4292C10.7511 16.4165 11.1396 15.2896 11.4281 14.0936C10.8667 14.0445 10.2981 14.0146 9.72255 14.0146C9.14688 14.0146 8.57839 14.0445 8.01703 14.0936C8.30539 15.2896 8.69402 16.4165 9.17455 17.4292ZM7.78445 17.2047C7.40846 16.286 7.10091 15.2922 6.86415 14.2453C5.84957 14.3966 4.87633 14.6217 3.95485 14.9164C4.97325 16.0151 6.29457 16.8235 7.78445 17.2047ZM6.6435 13.1188C6.47672 12.1283 6.38864 11.0907 6.36038 10.0287H1.84211C1.94307 11.4691 2.42134 12.8028 3.1776 13.9311C4.25836 13.5671 5.42064 13.2944 6.6435 13.1188ZM3.1776 4.98347C2.42134 6.11184 1.94307 7.44521 1.84211 8.88592H6.36038C6.38864 7.82359 6.47672 6.78577 6.6435 5.79553C5.42064 5.61993 4.25836 5.34749 3.1776 4.98347ZM3.95485 3.99836C4.87633 4.29261 5.84957 4.51797 6.86415 4.66933C7.10091 3.62252 7.40846 2.62857 7.78445 1.70966C6.29457 2.09087 4.97325 2.89948 3.95485 3.99836ZM10.2704 1.48517C10.0886 1.47248 9.90757 1.45722 9.72255 1.45722C9.53754 1.45722 9.35634 1.47248 9.17455 1.48517C8.69402 2.49812 8.30539 3.62497 8.01703 4.8207C8.57839 4.87019 9.14688 4.8997 9.72255 4.8997C10.2981 4.8997 10.8667 4.87019 11.4281 4.8207C11.1396 3.62497 10.7511 2.49812 10.2704 1.48517ZM11.6607 1.70966C12.0367 2.62857 12.3441 3.62252 12.5809 4.66933C13.5955 4.51797 14.5688 4.29261 15.4901 3.99836C14.4717 2.89948 13.1504 2.09087 11.6607 1.70966ZM12.8016 5.79553C12.9684 6.78577 13.0565 7.82359 13.0846 8.88592H17.603C17.5019 7.44521 17.0238 6.1116 16.2675 4.98347C15.1868 5.34749 14.0245 5.61993 12.8016 5.79553Z" fill="#6D6E71"/>
</svg>
