<svg width="33" height="27" viewBox="0 0 33 27" fill="none" xmlns="http://www.w3.org/2000/svg">
<path fill-rule="evenodd" clip-rule="evenodd" d="M28.4218 26.9412L4.42193 26.982C2.21285 26.9857 0.418869 25.1978 0.415173 22.9888L0.384549 4.98895C0.380853 2.77965 2.16863 0.985662 4.37768 0.981828L28.3778 0.941166C30.5869 0.937305 32.3807 2.72538 32.3845 4.93455L32.415 22.9344C32.4188 25.1434 30.631 26.9375 28.4218 26.9412ZM30.3845 4.93789C30.3826 3.83324 29.4857 2.93919 28.3811 2.94114L4.38115 2.9818C3.27667 2.98372 2.3826 3.88071 2.38451 4.9855L2.41514 22.9854C2.41695 24.0899 3.31399 24.9838 4.41847 24.982L28.4185 24.9412C29.5231 24.9393 30.4169 24.0423 30.415 22.9379L30.3845 4.93789ZM26.3997 13.9443L22.3997 13.9511C21.2952 13.953 20.3982 13.0594 20.3964 11.9546L20.3896 7.95504C20.3877 6.85025 21.2816 5.95328 22.3862 5.95134L26.3861 5.94456C27.4907 5.94262 28.3878 6.83667 28.3897 7.94146L28.3965 11.941C28.3982 13.0458 27.5043 13.9425 26.3997 13.9443ZM26.3912 8.94464C26.3903 8.3923 25.9419 7.94556 25.3896 7.94659L23.3895 7.94991C22.8374 7.9508 22.3903 8.39911 22.3913 8.95144L22.3946 10.9514C22.3956 11.5037 22.8442 11.9505 23.3963 11.9495L25.3964 11.9461C25.9487 11.9452 26.3955 11.497 26.3946 10.9446L26.3912 8.94464ZM17.4133 21.9599L5.41339 21.9801C4.8611 21.9812 4.41263 21.5341 4.41167 20.9821C4.41071 20.4297 4.85773 19.9812 5.41005 19.9803L17.41 19.9599C17.9623 19.9589 18.4108 20.4059 18.4117 20.9583C18.4127 21.5104 17.9656 21.9588 17.4133 21.9599ZM17.4065 17.9599L5.40659 17.9803C4.8543 17.9812 4.40583 17.5342 4.40487 16.9819C4.40392 16.4298 4.85097 15.9812 5.40325 15.9803L17.4032 15.9599C17.9555 15.9591 18.404 16.4059 18.4049 16.958C18.4059 17.5104 17.9589 17.959 17.4065 17.9599Z" fill="#6B6F71"/>
</svg>
