<svg width="26" height="21" viewBox="0 0 26 21" fill="none" xmlns="http://www.w3.org/2000/svg">
<path fill-rule="evenodd" clip-rule="evenodd" d="M17.3682 0.469707C19.331 0.431487 20.3769 1.15557 21.3764 2.0768C22.2232 2.00174 23.3232 1.51946 23.9708 1.1843C24.1808 1.06718 24.3909 0.950082 24.6007 0.832965C24.2322 1.84949 23.7315 2.64541 22.9607 3.24981C22.7895 3.38423 22.6197 3.56549 22.405 3.65117C22.405 3.65526 22.405 3.65963 22.405 3.664C23.5047 3.65026 24.4108 3.14515 25.2719 2.87064C25.2719 2.87501 25.2719 2.87912 25.2719 2.88347C24.8207 3.6141 24.2094 4.35548 23.5569 4.88781C23.2935 5.10061 23.0302 5.3138 22.7668 5.52684C22.7832 6.7086 22.7536 7.83607 22.5375 8.82979C21.2817 14.6047 17.9352 18.5294 12.6299 20.2174C10.7248 20.8237 7.64488 21.0765 5.46013 20.53C4.37676 20.2591 3.39794 19.9528 2.47907 19.5468C1.96885 19.3213 1.4962 19.0773 1.0439 18.7987C0.895388 18.7072 0.74685 18.6156 0.598416 18.524C1.09099 18.5383 1.66748 18.6751 2.21801 18.5841C2.71593 18.5014 3.20471 18.5221 3.66402 18.4188C4.80997 18.1615 5.82717 17.8223 6.70324 17.3006C7.128 17.0476 7.77257 16.7498 8.07391 16.3852C7.50469 16.3961 6.98841 16.2631 6.56521 16.1123C4.925 15.5277 3.96906 14.4493 3.34547 12.8281C3.84223 12.8819 5.27345 13.011 5.6076 12.7239C4.98222 12.69 4.38009 12.3233 3.95 12.0514C2.62998 11.216 1.5521 9.81322 1.55652 7.65188C1.72973 7.73512 1.90294 7.81824 2.07615 7.90135C2.40755 8.04245 2.74456 8.11789 3.13984 8.19972C3.30686 8.23435 3.64075 8.33377 3.83235 8.26117C3.824 8.26117 3.81576 8.26117 3.80754 8.26117C3.5517 7.96024 3.13581 7.76013 2.8789 7.43702C2.03109 6.37138 1.23547 4.73017 1.73365 2.77303C1.86001 2.27676 2.06112 1.83834 2.27534 1.43352C2.28358 1.43814 2.2918 1.44211 2.30001 1.44623C2.39884 1.65556 2.6189 1.80871 2.75837 1.98353C3.19134 2.52611 3.72528 3.01405 4.26912 3.4444C6.12212 4.90999 7.79009 5.80955 10.4678 6.47386C11.1471 6.64203 11.932 6.7699 12.7429 6.77017C12.514 6.09699 12.5853 5.00734 12.7636 4.35561C13.2118 2.71648 14.1895 1.53369 15.6258 0.898002C15.9693 0.74613 16.3503 0.635565 16.7502 0.546021C16.9561 0.520506 17.1622 0.495222 17.3682 0.469707Z" fill="#414344"/>
</svg>
