<svg width="25" height="21" viewBox="0 0 25 21" fill="none" xmlns="http://www.w3.org/2000/svg">
<path fill-rule="evenodd" clip-rule="evenodd" d="M17.0005 0.657615C18.9634 0.622713 20.008 1.3486 21.0059 2.27111C21.8529 2.19761 22.9537 1.71751 23.6019 1.38335C23.8121 1.26638 24.0224 1.14992 24.2325 1.03305C23.8622 2.04882 23.3601 2.84369 22.5883 3.44721C22.4169 3.58113 22.2468 3.76236 22.032 3.84766C22.032 3.85165 22.032 3.856 22.032 3.86012C23.1317 3.84857 24.0386 3.34511 24.9002 3.07203C24.9002 3.07639 24.9002 3.08036 24.9002 3.08446C24.4476 3.81431 23.8351 4.55482 23.1817 5.08624C22.9179 5.29866 22.6543 5.51132 22.3906 5.72399C22.4049 6.9056 22.3734 8.03309 22.1556 9.02641C20.89 14.7993 17.5368 18.7183 12.2287 20.3972C10.3225 21.0003 7.24227 21.2479 5.05848 20.6976C3.97545 20.4245 2.99723 20.1167 2.07908 19.7093C1.56923 19.483 1.0969 19.2379 0.6451 18.9587C0.4968 18.8671 0.3484 18.7753 0.2001 18.6834C0.692675 18.6983 1.26893 18.8363 1.81955 18.746C2.31773 18.6644 2.80637 18.6858 3.26592 18.5835C4.41225 18.3281 5.43005 17.9906 6.30708 17.4702C6.73218 17.2181 7.37722 16.921 7.6793 16.557C7.10995 16.5672 6.5939 16.4334 6.17105 16.2817C4.5318 15.6942 3.57765 14.6143 2.95683 12.9917C3.45355 13.0469 4.88455 13.1782 5.21917 12.8918C4.5938 12.8567 3.99237 12.4892 3.56262 12.2161C2.24405 11.3789 1.16855 9.97418 1.17665 7.81299C1.34975 7.89648 1.52285 7.97985 1.69592 8.06297C2.0271 8.20472 2.36387 8.28066 2.75905 8.36312C2.92605 8.39803 3.25973 8.49807 3.4514 8.4261C3.44308 8.4261 3.43485 8.4261 3.42663 8.4261C3.1714 8.12442 2.75582 7.92355 2.4994 7.60032C1.65337 6.53297 0.860625 4.89037 1.36215 2.93439C1.48935 2.43837 1.69118 2.00021 1.9061 1.59577C1.91433 1.60014 1.92255 1.60423 1.93078 1.6086C2.02925 1.8178 2.24895 1.97135 2.38818 2.14631C2.8202 2.68966 3.3533 3.1785 3.89643 3.60973C5.7469 5.07879 7.41332 5.98118 10.0899 6.64971C10.7689 6.81902 11.5537 6.94858 12.3646 6.94987C12.1368 6.27671 12.2099 5.18719 12.3894 4.53545C12.8403 2.89705 13.82 1.71595 15.2574 1.08295C15.6011 0.931602 15.9823 0.821667 16.3824 0.732648C16.5884 0.707763 16.7945 0.6825 17.0005 0.657615Z" fill="#1FAAE2"/>
</svg>
